<svg width="26" height="26" viewBox="0 0 26 26" fill="none" xmlns="http://www.w3.org/2000/svg">
    <path fill-rule="evenodd" clip-rule="evenodd" d="M23.067 23.245c.597-.547.936-1.32.932-2.129v-2.858a2.875 2.875 0 0 0-2.475-2.903 11.397 11.397 0 0 1-2.495-.62 2.88 2.88 0 0 0-3.034.648l-.692.69a14.38 14.38 0 0 1-4.4-4.392l.689-.687a2.871 2.871 0 0 0 .651-3.035c-.299-.799-.506-1.631-.619-2.48A2.879 2.879 0 0 0 8.745 3H5.876c-.808 0-1.579.34-2.124.936a2.87 2.87 0 0 0-.74 2.196 19.903 19.903 0 0 0 3.095 8.738 19.64 19.64 0 0 0 6.047 6.034 19.958 19.958 0 0 0 8.69 3.084 2.89 2.89 0 0 0 2.223-.743zm-.986-5.026v2.905a.957.957 0 0 1-1.063.956 18.006 18.006 0 0 1-7.82-2.783 17.744 17.744 0 0 1-5.471-5.454A18.008 18.008 0 0 1 4.92 5.93a.96.96 0 0 1 .958-1.014h2.867c.501-.005.911.348.98.832.128.973.371 1.946.72 2.881a.96.96 0 0 1-.218 1.018l-.68.68a1.913 1.913 0 0 0-.261 2.384 16.296 16.296 0 0 0 4.986 4.977 1.921 1.921 0 0 0 2.388-.26l.692-.691a.956.956 0 0 1 1.002-.209c.944.352 1.919.594 2.919.726a.954.954 0 0 1 .808.965z" fill="#0D6FFC"/>
</svg>
